# xmcd
#
# Track frame offsets: 
#        150
#        20896
#        35567
#        46112
#        56149
#        85014
#        97598
#        106329
#        126858
#        140595
#        158327
#
# Disc length: 2283 seconds
#
# Revision: 0
# Processed by: cddbd v1.5.2PL0 Copyright (c) Steve Scherf et al.
# Submitted via: ExactAudioCopyFreeDBPlugin 1.0
#
DISCID=8408e90b
DTITLE=天艺唱片 - 生命之旅CDA
DYEAR=2014
DGENRE=A Cappella
TTITLE0=*达梅林
TTITLE1=赞歌
TTITLE2=万马奔腾
TTITLE3=呼和沁好亭
TTITLE4=走马
TTITLE5=万丽姑娘
TTITLE6=江木沦水
TTITLE7=成吉思汗
TTITLE8=祭日颂
TTITLE9=东山哥哥
TTITLE10=丽壮的海遛马
EXTD=
EXTT0=
EXTT1=
EXTT2=
EXTT3=
EXTT4=
EXTT5=
EXTT6=
EXTT7=
EXTT8=
EXTT9=
EXTT10=
PLAYORDER=
